<mxfile host="app.diagrams.net" modified="2023-12-02T05:54:58.985Z" agent="Mozilla/5.0 (Macintosh; Intel Mac OS X 10_15_7) AppleWebKit/537.36 (KHTML, like Gecko) Chrome/119.0.0.0 Safari/537.36" etag="xi-pq96l1IOTGVXqxCNL" version="22.1.5" type="github">
  <diagram name="Page-1" id="re3Tty39cX0bNbaNVT2o">
    <mxGraphModel dx="954" dy="610" grid="1" gridSize="10" guides="1" tooltips="1" connect="1" arrows="1" fold="1" page="1" pageScale="1" pageWidth="827" pageHeight="1169" math="0" shadow="0">
      <root>
        <mxCell id="0" />
        <mxCell id="1" parent="0" />
        <mxCell id="mQ4hkL429XFJEaQ07yMi-1" value="" style="outlineConnect=0;dashed=0;verticalLabelPosition=bottom;verticalAlign=top;align=center;html=1;shape=mxgraph.aws3.s3;fillColor=#E05243;gradientColor=none;" vertex="1" parent="1">
          <mxGeometry x="100" y="180" width="76.5" height="93" as="geometry" />
        </mxCell>
        <mxCell id="mQ4hkL429XFJEaQ07yMi-4" style="edgeStyle=orthogonalEdgeStyle;rounded=0;orthogonalLoop=1;jettySize=auto;html=1;" edge="1" parent="1">
          <mxGeometry relative="1" as="geometry">
            <mxPoint x="180" y="226.5" as="targetPoint" />
            <mxPoint x="320" y="226.5" as="sourcePoint" />
          </mxGeometry>
        </mxCell>
        <mxCell id="mQ4hkL429XFJEaQ07yMi-3" value="" style="sketch=0;points=[[0,0,0],[0.25,0,0],[0.5,0,0],[0.75,0,0],[1,0,0],[0,1,0],[0.25,1,0],[0.5,1,0],[0.75,1,0],[1,1,0],[0,0.25,0],[0,0.5,0],[0,0.75,0],[1,0.25,0],[1,0.5,0],[1,0.75,0]];outlineConnect=0;fontColor=#232F3E;fillColor=#E7157B;strokeColor=#ffffff;dashed=0;verticalLabelPosition=bottom;verticalAlign=top;align=center;html=1;fontSize=12;fontStyle=0;aspect=fixed;shape=mxgraph.aws4.resourceIcon;resIcon=mxgraph.aws4.sqs;" vertex="1" parent="1">
          <mxGeometry x="551" y="102" width="78" height="78" as="geometry" />
        </mxCell>
        <mxCell id="mQ4hkL429XFJEaQ07yMi-5" value="S3" style="text;html=1;strokeColor=none;fillColor=none;align=center;verticalAlign=middle;whiteSpace=wrap;rounded=0;fontStyle=1" vertex="1" parent="1">
          <mxGeometry x="108.25" y="273" width="60" height="30" as="geometry" />
        </mxCell>
        <mxCell id="mQ4hkL429XFJEaQ07yMi-6" value="Python (Boto)" style="text;html=1;strokeColor=none;fillColor=none;align=center;verticalAlign=middle;whiteSpace=wrap;rounded=0;fontStyle=1" vertex="1" parent="1">
          <mxGeometry x="324.5" y="273" width="60" height="30" as="geometry" />
        </mxCell>
        <mxCell id="mQ4hkL429XFJEaQ07yMi-7" style="edgeStyle=orthogonalEdgeStyle;rounded=0;orthogonalLoop=1;jettySize=auto;html=1;entryX=0;entryY=0.5;entryDx=0;entryDy=0;entryPerimeter=0;" edge="1" parent="1" target="mQ4hkL429XFJEaQ07yMi-3">
          <mxGeometry relative="1" as="geometry">
            <mxPoint x="389" y="226.5" as="sourcePoint" />
          </mxGeometry>
        </mxCell>
        <mxCell id="mQ4hkL429XFJEaQ07yMi-12" value="Pull CSV &amp;amp; Convert Csv to JSON&amp;nbsp;" style="text;html=1;strokeColor=none;fillColor=none;align=center;verticalAlign=middle;whiteSpace=wrap;rounded=0;fontStyle=1" vertex="1" parent="1">
          <mxGeometry x="190" y="187.5" width="120" height="30" as="geometry" />
        </mxCell>
        <mxCell id="mQ4hkL429XFJEaQ07yMi-23" style="edgeStyle=orthogonalEdgeStyle;rounded=0;orthogonalLoop=1;jettySize=auto;html=1;" edge="1" parent="1" source="mQ4hkL429XFJEaQ07yMi-17">
          <mxGeometry relative="1" as="geometry">
            <mxPoint x="550" y="260" as="targetPoint" />
          </mxGeometry>
        </mxCell>
        <mxCell id="mQ4hkL429XFJEaQ07yMi-17" value="" style="outlineConnect=0;dashed=0;verticalLabelPosition=bottom;verticalAlign=top;align=center;html=1;shape=mxgraph.aws3.android;fillColor=#FFD44F;gradientColor=none;" vertex="1" parent="1">
          <mxGeometry x="317.75" y="187.5" width="73.5" height="84" as="geometry" />
        </mxCell>
        <mxCell id="mQ4hkL429XFJEaQ07yMi-18" value="" style="verticalLabelPosition=bottom;html=1;verticalAlign=top;align=center;strokeColor=none;fillColor=#00BEF2;shape=mxgraph.azure.user;" vertex="1" parent="1">
          <mxGeometry x="60.75" y="80" width="47.5" height="50" as="geometry" />
        </mxCell>
        <mxCell id="mQ4hkL429XFJEaQ07yMi-19" style="edgeStyle=orthogonalEdgeStyle;rounded=0;orthogonalLoop=1;jettySize=auto;html=1;entryX=0;entryY=0.5;entryDx=0;entryDy=0;entryPerimeter=0;" edge="1" parent="1" source="mQ4hkL429XFJEaQ07yMi-18" target="mQ4hkL429XFJEaQ07yMi-1">
          <mxGeometry relative="1" as="geometry" />
        </mxCell>
        <mxCell id="mQ4hkL429XFJEaQ07yMi-20" value="Uploads .csv" style="text;html=1;strokeColor=none;fillColor=none;align=center;verticalAlign=middle;whiteSpace=wrap;rounded=0;fontStyle=1" vertex="1" parent="1">
          <mxGeometry x="20" y="157.5" width="60" height="30" as="geometry" />
        </mxCell>
        <mxCell id="mQ4hkL429XFJEaQ07yMi-21" value="" style="sketch=0;points=[[0,0,0],[0.25,0,0],[0.5,0,0],[0.75,0,0],[1,0,0],[0,1,0],[0.25,1,0],[0.5,1,0],[0.75,1,0],[1,1,0],[0,0.25,0],[0,0.5,0],[0,0.75,0],[1,0.25,0],[1,0.5,0],[1,0.75,0]];outlineConnect=0;fontColor=#232F3E;fillColor=#E7157B;strokeColor=#ffffff;dashed=0;verticalLabelPosition=bottom;verticalAlign=top;align=center;html=1;fontSize=12;fontStyle=0;aspect=fixed;shape=mxgraph.aws4.resourceIcon;resIcon=mxgraph.aws4.sqs;" vertex="1" parent="1">
          <mxGeometry x="551" y="210" width="78" height="78" as="geometry" />
        </mxCell>
        <mxCell id="mQ4hkL429XFJEaQ07yMi-22" value="" style="sketch=0;points=[[0,0,0],[0.25,0,0],[0.5,0,0],[0.75,0,0],[1,0,0],[0,1,0],[0.25,1,0],[0.5,1,0],[0.75,1,0],[1,1,0],[0,0.25,0],[0,0.5,0],[0,0.75,0],[1,0.25,0],[1,0.5,0],[1,0.75,0]];outlineConnect=0;fontColor=#232F3E;fillColor=#E7157B;strokeColor=#ffffff;dashed=0;verticalLabelPosition=bottom;verticalAlign=top;align=center;html=1;fontSize=12;fontStyle=0;aspect=fixed;shape=mxgraph.aws4.resourceIcon;resIcon=mxgraph.aws4.sqs;" vertex="1" parent="1">
          <mxGeometry x="551" y="330" width="78" height="78" as="geometry" />
        </mxCell>
        <mxCell id="mQ4hkL429XFJEaQ07yMi-25" style="edgeStyle=orthogonalEdgeStyle;rounded=0;orthogonalLoop=1;jettySize=auto;html=1;entryX=0;entryY=0.5;entryDx=0;entryDy=0;entryPerimeter=0;" edge="1" parent="1">
          <mxGeometry relative="1" as="geometry">
            <mxPoint x="391.25" y="233" as="sourcePoint" />
            <mxPoint x="551" y="362" as="targetPoint" />
            <Array as="points">
              <mxPoint x="471" y="233" />
              <mxPoint x="471" y="362" />
            </Array>
          </mxGeometry>
        </mxCell>
        <mxCell id="mQ4hkL429XFJEaQ07yMi-26" value="User" style="text;html=1;strokeColor=none;fillColor=none;align=center;verticalAlign=middle;whiteSpace=wrap;rounded=0;fontStyle=1" vertex="1" parent="1">
          <mxGeometry x="54.5" y="40" width="60" height="30" as="geometry" />
        </mxCell>
        <mxCell id="mQ4hkL429XFJEaQ07yMi-27" value="client_queue_url&lt;span style=&quot;font-size: medium; text-align: start;&quot;&gt;&lt;/span&gt;" style="text;html=1;strokeColor=none;fillColor=none;align=center;verticalAlign=middle;whiteSpace=wrap;rounded=0;fontStyle=1" vertex="1" parent="1">
          <mxGeometry x="551" y="70" width="60" height="30" as="geometry" />
        </mxCell>
        <mxCell id="mQ4hkL429XFJEaQ07yMi-28" value="portfolio_queue_url&lt;span style=&quot;font-size: medium; text-align: start;&quot;&gt;&lt;/span&gt;" style="text;html=1;strokeColor=none;fillColor=none;align=center;verticalAlign=middle;whiteSpace=wrap;rounded=0;fontStyle=1" vertex="1" parent="1">
          <mxGeometry x="560" y="180" width="60" height="30" as="geometry" />
        </mxCell>
        <mxCell id="mQ4hkL429XFJEaQ07yMi-29" value="other_queue_url&lt;span style=&quot;font-size: medium; text-align: start;&quot;&gt;&lt;/span&gt;" style="text;html=1;strokeColor=none;fillColor=none;align=center;verticalAlign=middle;whiteSpace=wrap;rounded=0;fontStyle=1" vertex="1" parent="1">
          <mxGeometry x="560" y="303" width="60" height="30" as="geometry" />
        </mxCell>
        <mxCell id="mQ4hkL429XFJEaQ07yMi-30" value="Client.json" style="text;html=1;strokeColor=none;fillColor=none;align=center;verticalAlign=middle;whiteSpace=wrap;rounded=0;fontStyle=1" vertex="1" parent="1">
          <mxGeometry x="470" y="110" width="60" height="30" as="geometry" />
        </mxCell>
        <mxCell id="mQ4hkL429XFJEaQ07yMi-31" value="Portfolio.json" style="text;html=1;strokeColor=none;fillColor=none;align=center;verticalAlign=middle;whiteSpace=wrap;rounded=0;fontStyle=1" vertex="1" parent="1">
          <mxGeometry x="480" y="234" width="60" height="30" as="geometry" />
        </mxCell>
        <mxCell id="mQ4hkL429XFJEaQ07yMi-32" value="Other.json" style="text;html=1;strokeColor=none;fillColor=none;align=center;verticalAlign=middle;whiteSpace=wrap;rounded=0;fontStyle=1" vertex="1" parent="1">
          <mxGeometry x="480" y="339" width="60" height="30" as="geometry" />
        </mxCell>
      </root>
    </mxGraphModel>
  </diagram>
</mxfile>
